<?xml version="1.0"?><svg width="2200" height="400" xmlns="http://www.w3.org/2000/svg">
 <title>cupcake banner</title>

 <metadata id="metadata16">image/svg+xml</metadata>
 <g>
  <path d="m115.329407,187.570999c0,21.697006 -19.187004,39.285995 -42.85701,39.285995c-23.669216,0 -42.857018,-17.588989 -42.857018,-39.285995c0,-21.695999 19.187801,-39.285004 42.857018,-39.285004c23.670006,0 42.85701,17.589005 42.85701,39.285004l0,0z" stroke-width="5.798" stroke-miterlimit="4" stroke-linejoin="round" stroke-linecap="round" stroke-dashoffset="0" fill-rule="evenodd" fill="#ffaad4" id="path2387"/>
  <path d="m370.615326,188.929001c0,21.695999 -19.187988,39.284988 -42.856995,39.284988c-23.669006,0 -42.856995,-17.588989 -42.856995,-39.284988c0,-21.697006 19.187988,-39.285995 42.856995,-39.285995c23.669006,0 42.856995,17.588989 42.856995,39.285995l0,0z" stroke-width="5.798" stroke-miterlimit="4" stroke-linejoin="round" stroke-linecap="round" stroke-dashoffset="0" fill-rule="evenodd" fill="#ffaad4" id="path2397"/>
  <path d="m201.628403,30.999001c-22.569,0 -41.095001,13.395 -42.75,30.375c-60.156006,13.053001 -103.958012,52.047997 -104.406013,98.187996l297.155937,0c-0.455994,-46.880997 -45.692993,-86.371994 -107.342911,-98.780998c-2.025009,-16.696999 -20.35202,-29.781998 -42.657013,-29.781998l0,0l0,0l0,0l0,0l0,0l0,0l0,0z" stroke-width="5.798" stroke-miterlimit="4" stroke-linejoin="round" stroke-linecap="round" stroke-dashoffset="0" fill-rule="evenodd" fill="#ffaad4" id="path2399"/>
  <path d="m43.839378,220.080994l67.902031,154.740021l179.846909,1.097992l64.231018,-154.740021l-311.979958,-1.097992l0,0z" stroke-width="0" stroke-dasharray="5,5" fill-rule="evenodd" fill="#ff56aa" id="path2422"/>
  <title>Layer 1</title>
  <ellipse rx="9" cy="178" cx="193" stroke-width="0" stroke-linejoin="null" stroke-linecap="null" stroke-dasharray="5,5" fill="#7f3f00" id="svg_2"/>
  <ellipse ry="3" cy="205" cx="152" stroke-width="5.798" stroke-linejoin="round" stroke-linecap="round" stroke-dasharray="null" fill="#ffffff" id="svg_8"/>
  <ellipse rx="1" cy="213" cx="349" stroke-width="5.798" stroke-linejoin="round" stroke-linecap="round" stroke-dasharray="null" fill="#00ffff" id="svg_49"/>
  <ellipse cy="133" cx="494" stroke-width="5.798" stroke-linejoin="round" stroke-linecap="round" stroke-dasharray="null" fill="#ffff00" id="svg_3"/>
  <ellipse ry="45.5" rx="153" cy="190.5" cx="198.615384" stroke-width="5.798" stroke-linejoin="round" stroke-linecap="round" stroke-dasharray="null" fill="#ffaad4" id="svg_6"/>
  <ellipse cy="211" cx="79" stroke-width="5.798" stroke-linejoin="round" stroke-linecap="round" stroke-dasharray="null" fill="#ff0000" id="svg_12"/>
  <rect height="0" width="1" y="225" x="270" stroke-width="5.798" stroke-linejoin="round" stroke-linecap="round" stroke-dasharray="null" fill="#ffffff" id="svg_7"/>
  <rect height="0" width="15" y="238" x="196" stroke-width="5.798" stroke-linejoin="round" stroke-linecap="round" stroke-dasharray="null" fill="#ffffff" id="svg_13"/>
  <rect height="0" width="15" y="221" x="349" stroke-width="5.798" stroke-linejoin="round" stroke-linecap="round" stroke-dasharray="null" fill="#ffffff" id="svg_16"/>
  <rect height="0" width="19" y="155" x="306" stroke-width="5.798" stroke-linejoin="round" stroke-linecap="round" stroke-dasharray="null" fill="#ffffff" id="svg_19"/>
  <rect height="0" width="17" y="145" x="256" stroke-width="5.798" stroke-linejoin="round" stroke-linecap="round" stroke-dasharray="null" fill="#ffffff" id="svg_20"/>
  <rect height="0" width="12" y="155" x="186" stroke-width="5.798" stroke-linejoin="round" stroke-linecap="round" stroke-dasharray="null" fill="#ffffff" id="svg_22"/>
  <path d="m475.829315,188.112015c0,21.697006 -19.187012,39.285995 -42.856995,39.285995c-23.669189,0 -42.856995,-17.588989 -42.856995,-39.285995c0,-21.695999 19.187805,-39.285004 42.856995,-39.285004c23.669983,0 42.856995,17.589005 42.856995,39.285004l0,0z" stroke-width="5.798" stroke-miterlimit="4" stroke-linejoin="round" stroke-linecap="round" stroke-dashoffset="0" fill-rule="evenodd" fill="#ffaa56" id="svg_1"/>
  <path d="m731.115479,189.470016c0,21.695999 -19.187988,39.284988 -42.856995,39.284988c-23.669006,0 -42.856995,-17.588989 -42.856995,-39.284988c0,-21.697006 19.187988,-39.285995 42.856995,-39.285995c23.669006,0 42.856995,17.588989 42.856995,39.285995l0,0z" stroke-width="5.798" stroke-miterlimit="4" stroke-linejoin="round" stroke-linecap="round" stroke-dashoffset="0" fill-rule="evenodd" fill="#ffaa56" id="svg_4"/>
  <path d="m562.128479,31.54002c-22.569031,0 -41.095032,13.394989 -42.750061,30.375c-60.156097,13.052998 -103.958099,52.047993 -104.406097,98.187992l297.156158,0c-0.455994,-46.880989 -45.692993,-86.371994 -107.342957,-98.781002c-2.025024,-16.696991 -20.352051,-29.78199 -42.657043,-29.78199l0,0l0,0l0,0l0,0l0,0l0,0l0,0z" stroke-width="5.798" stroke-miterlimit="4" stroke-linejoin="round" stroke-linecap="round" stroke-dashoffset="0" fill-rule="evenodd" fill="#ffaa56" id="svg_5"/>
  <path d="m404.339325,220.622009l67.902008,154.740021l179.847168,1.097992l64.230957,-154.740021l-311.980133,-1.097992l0,0z" stroke-width="0" stroke-dasharray="5,5" fill-rule="evenodd" fill="#ff7f00" id="svg_9"/>
  <ellipse ry="45.5" rx="153" cy="191.041016" cx="559.115384" stroke-width="5.798" stroke-linejoin="round" stroke-linecap="round" stroke-dasharray="null" fill="#ffaa56" id="svg_10"/>
  <path d="m836.964111,188.532837c0,21.697006 -19.187012,39.285995 -42.856995,39.285995c-23.669189,0 -42.856995,-17.588989 -42.856995,-39.285995c0,-21.695999 19.187805,-39.285004 42.856995,-39.285004c23.669983,0 42.856995,17.589005 42.856995,39.285004l0,0z" stroke-width="5.798" stroke-miterlimit="4" stroke-linejoin="round" stroke-linecap="round" stroke-dashoffset="0" fill-rule="evenodd" fill="#f9f970" id="svg_11"/>
  <path d="m1092.250122,189.890839c0,21.695999 -19.187988,39.284988 -42.857056,39.284988c-23.668945,0 -42.856934,-17.588989 -42.856934,-39.284988c0,-21.697006 19.187988,-39.285995 42.856934,-39.285995c23.669067,0 42.857056,17.588989 42.857056,39.285995l0,0z" stroke-width="5.798" stroke-miterlimit="4" stroke-linejoin="round" stroke-linecap="round" stroke-dashoffset="0" fill-rule="evenodd" fill="#f9f970" id="svg_14"/>
  <path d="m923.263123,31.96084c-22.56897,0 -41.094971,13.394991 -42.75,30.374998c-60.156006,13.053001 -103.958008,52.047989 -104.406006,98.187996l297.155945,0c-0.455933,-46.880997 -45.692993,-86.371994 -107.342957,-98.780994c-2.025024,-16.696999 -20.35199,-29.782 -42.656982,-29.782l0,0l0,0l0,0l0,0l0,0l0,0l0,0z" stroke-width="5.798" stroke-miterlimit="4" stroke-linejoin="round" stroke-linecap="round" stroke-dashoffset="0" fill-rule="evenodd" fill="#f9f970" id="svg_15"/>
  <path d="m764.474121,221.042831l67.902039,154.740036l179.846924,1.097992l64.231018,-154.740036l-311.97998,-1.097992l0,0z" stroke-width="0" stroke-dasharray="5,5" fill-rule="evenodd" fill="#ffff00" id="svg_17"/>
  <ellipse ry="45.5" rx="153" cy="191.461838" cx="920.250013" stroke-width="5.798" stroke-linejoin="round" stroke-linecap="round" stroke-dasharray="null" fill="#f9f970" id="svg_18"/>
  <path d="m1196.463989,189.073853c0,21.697006 -19.18689,39.285995 -42.856934,39.285995c-23.669189,0 -42.856934,-17.588989 -42.856934,-39.285995c0,-21.695999 19.187744,-39.285004 42.856934,-39.285004c23.670044,0 42.856934,17.589005 42.856934,39.285004l0,0z" stroke-width="5.798" stroke-miterlimit="4" stroke-linejoin="round" stroke-linecap="round" stroke-dashoffset="0" fill-rule="evenodd" fill="#b8ff72" id="svg_21"/>
  <path d="m1451.750122,190.431854c0,21.695999 -19.187988,39.284988 -42.857056,39.284988c-23.669067,0 -42.857056,-17.588989 -42.857056,-39.284988c0,-21.697006 19.187988,-39.285995 42.857056,-39.285995c23.669067,0 42.857056,17.588989 42.857056,39.285995l0,0z" stroke-width="5.798" stroke-miterlimit="4" stroke-linejoin="round" stroke-linecap="round" stroke-dashoffset="0" fill-rule="evenodd" fill="#b8ff72" id="svg_23"/>
  <path d="m1282.763062,32.50185c-22.569092,0 -41.094971,13.395 -42.75,30.375c-60.156006,13.053013 -103.958008,52.048 -104.406006,98.188l297.156006,0c-0.456055,-46.880997 -45.692993,-86.371986 -107.343018,-98.780998c-2.024902,-16.697002 -20.352051,-29.782001 -42.656982,-29.782001l0,0l0,0l0,0l0,0l0,0l0,0l0,0z" stroke-width="5.798" stroke-miterlimit="4" stroke-linejoin="round" stroke-linecap="round" stroke-dashoffset="0" fill-rule="evenodd" fill="#b8ff72" id="svg_24"/>
  <path d="m1124.974121,221.583847l67.901978,154.740036l179.846924,1.097992l64.230957,-154.740036l-311.979858,-1.097992l0,0z" stroke-width="0" stroke-dasharray="5,5" fill-rule="evenodd" fill="#7fff00" id="svg_25"/>
  <ellipse ry="45.5" rx="153" cy="192.002853" cx="1279.750013" stroke-width="5.798" stroke-linejoin="round" stroke-linecap="round" stroke-dasharray="null" fill="#b8ff72" id="svg_26"/>
  <path d="m1555.579468,187.84053c0,21.697006 -19.187012,39.285995 -42.857056,39.285995c-23.669189,0 -42.856934,-17.588989 -42.856934,-39.285995c0,-21.695999 19.187744,-39.285004 42.856934,-39.285004c23.670044,0 42.857056,17.589005 42.857056,39.285004l0,0z" stroke-width="5.798" stroke-miterlimit="4" stroke-linejoin="round" stroke-linecap="round" stroke-dashoffset="0" fill-rule="evenodd" fill="#89c1f9" id="svg_27"/>
  <path d="m1810.865479,189.198532c0,21.695999 -19.187988,39.284988 -42.856934,39.284988c-23.669067,0 -42.857056,-17.588989 -42.857056,-39.284988c0,-21.697006 19.187988,-39.285995 42.857056,-39.285995c23.668945,0 42.856934,17.588989 42.856934,39.285995l0,0z" stroke-width="5.798" stroke-miterlimit="4" stroke-linejoin="round" stroke-linecap="round" stroke-dashoffset="0" fill-rule="evenodd" fill="#89c1f9" id="svg_28"/>
  <path d="m1641.878418,31.26853c-22.56897,0 -41.094971,13.394999 -42.75,30.375002c-60.156006,13.053001 -103.958008,52.047997 -104.406006,98.187996l297.156006,0c-0.455933,-46.880997 -45.692871,-86.371994 -107.342896,-98.780998c-2.025024,-16.696999 -20.352051,-29.782 -42.657104,-29.782l0,0l0,0l0,0l0,0l0,0l0,0l0,0z" stroke-width="5.798" stroke-miterlimit="4" stroke-linejoin="round" stroke-linecap="round" stroke-dashoffset="0" fill-rule="evenodd" fill="#89c1f9" id="svg_29"/>
  <path d="m1484.089478,220.350525l67.901978,154.740021l179.847046,1.097992l64.230957,-154.740021l-311.97998,-1.097992l0,0z" stroke-width="0" stroke-dasharray="5,5" fill-rule="evenodd" fill="#007fff" id="svg_30"/>
  <ellipse ry="45.5" rx="153" cy="190.769531" cx="1638.865384" stroke-width="5.798" stroke-linejoin="round" stroke-linecap="round" stroke-dasharray="null" fill="#89c1f9" id="svg_31"/>
  <path d="m1916.079468,188.381546c0,21.697006 -19.187012,39.285995 -42.857056,39.285995c-23.669189,0 -42.856934,-17.588989 -42.856934,-39.285995c0,-21.695999 19.187744,-39.285004 42.856934,-39.285004c23.670044,0 42.857056,17.589005 42.857056,39.285004l0,0z" stroke-width="5.798" stroke-miterlimit="4" stroke-linejoin="round" stroke-linecap="round" stroke-dashoffset="0" fill-rule="evenodd" fill="#c28ef9" id="svg_32"/>
  <path d="m2171.365479,189.739548c0,21.695999 -19.187988,39.284988 -42.856934,39.284988c-23.668945,0 -42.856934,-17.588989 -42.856934,-39.284988c0,-21.697006 19.187988,-39.285995 42.856934,-39.285995c23.668945,0 42.856934,17.588989 42.856934,39.285995l0,0z" stroke-width="5.798" stroke-miterlimit="4" stroke-linejoin="round" stroke-linecap="round" stroke-dashoffset="0" fill-rule="evenodd" fill="#c28ef9" id="svg_33"/>
  <path d="m2002.378418,31.809549c-22.56897,0 -41.094971,13.394991 -42.75,30.375002c-60.156006,13.052998 -103.958008,52.047985 -104.406006,98.187992l297.156006,0c-0.455811,-46.880997 -45.692871,-86.371994 -107.342896,-98.780994c-2.025024,-16.696999 -20.352051,-29.782 -42.657104,-29.782l0,0l0,0l0,0l0,0l0,0l0,0l0,0z" stroke-width="5.798" stroke-miterlimit="4" stroke-linejoin="round" stroke-linecap="round" stroke-dashoffset="0" fill-rule="evenodd" fill="#c28ef9" id="svg_34"/>
  <path d="m1844.589478,220.891541l67.901978,154.740021l179.847168,1.097992l64.230957,-154.740021l-311.980103,-1.097992l0,0z" stroke-width="0" stroke-dasharray="5,5" fill-rule="evenodd" fill="#7f00ff" id="svg_35"/>
  <ellipse ry="45.5" rx="153" cy="191.310547" cx="1999.365384" stroke-width="5.798" stroke-linejoin="round" stroke-linecap="round" stroke-dasharray="null" fill="#c28ef9" id="svg_36"/>
 </g>
</svg>